<svg width="1902" height="1305" viewBox="0 0 1902 1305" fill="none" xmlns="http://www.w3.org/2000/svg">
<path d="M1702 182.482C1702 81.6999 1783.7 0 1884.48 0V0C1894.16 0 1902 7.84319 1902 17.5182V217.352C1902 318.226 1820.23 400 1719.35 400V400C1709.77 400 1702 392.231 1702 382.648V182.482Z" fill="#5B3398"/>
<rect x="576" y="627.777" width="250" height="250" rx="40" transform="rotate(-45 576 627.777)" fill="#5B3398"/>
<path d="M1597.31 1175.9C1605.23 1167.33 1618.77 1167.33 1626.69 1175.9L1710.89 1267.05C1722.73 1279.86 1713.64 1300.62 1696.2 1300.62H1527.8C1510.36 1300.62 1501.27 1279.86 1513.11 1267.05L1597.31 1175.9Z" fill="#5B3398"/>
<path d="M1702 615.185C1702 512.91 1784.91 430 1887.19 430V430C1895.37 430 1902 436.633 1902 444.815V1286.82C1902 1296.86 1893.86 1305 1883.82 1305V1305C1783.4 1305 1702 1223.6 1702 1123.18V615.185Z" fill="#335B98"/>
<path d="M0 824.495C0 813.728 8.72802 805 19.4946 805V805C119.185 805 200 885.815 200 985.505V1305V1305C89.5431 1305 0 1215.46 0 1105V824.495Z" fill="#335B98"/>
<path d="M1326 429.185C1326 326.91 1408.91 244 1511.19 244V244C1519.37 244 1526 250.633 1526 258.815V1105C1526 1215.46 1436.46 1305 1326 1305V1305V429.185Z" fill="#335B98"/>
<rect x="200" y="1105" width="1126" height="200" fill="#335B98"/>
<path d="M592 805C592 805 715 965.5 752 965.5C789 965.5 912 805 912 805V1105H592V805Z" fill="#335B98"/>
</svg>
